<?xml version="1.0" encoding="utf-8"?>
<!-- Generator: Adobe Illustrator 19.2.1, SVG Export Plug-In . SVG Version: 6.00 Build 0)  -->
<svg version="1.1" id="_1" xmlns="http://www.w3.org/2000/svg" xmlns:xlink="http://www.w3.org/1999/xlink" x="0px" y="0px"
	 viewBox="0 0 795 982" style="enable-background:new 0 0 795 982;" xml:space="preserve">
<g id="points">
	<g id="all">
		<circle id="Эллипс_1" cx="397" cy="5" r="5" class="circle 1"/>
		<circle id="Эллипс_1_копия" cx="32" cy="216" r="5" class="circle 2"/>
		<circle id="Эллипс_1_копия_6" cx="112" cy="169" r="5" class="circle 3"/>
		<circle id="Эллипс_1_копия_7" cx="182" cy="129" r="5" class="circle 4"/>
		<circle id="Эллипс_1_копия_8" cx="252" cy="89" r="5" class="circle 5"/>
		<circle id="Эллипс_1_копия_9" cx="323" cy="49" r="5" class="circle 6"/>
		<circle id="Эллипс_1_копия_10" cx="397" cy="89" r="5" class="circle 7"/>
		<circle id="Эллипс_1_копия_11" cx="32" cy="301" r="5" class="circle 8"/>
		<circle id="Эллипс_1_копия_12" cx="112" cy="255" r="5" class="circle 9"/>
		<circle id="Эллипс_1_копия_13" cx="182.5" cy="213.5" r="2.5" class="circle 10"/>
		<circle id="Эллипс_1_копия_15" cx="323.5" cy="133.5" r="2.5" class="circle 11"/>
		<circle id="Эллипс_1_копия_17" cx="32" cy="385" r="5" class="circle 12"/>
		<circle id="Эллипс_1_копия_18" cx="112" cy="341" r="5" class="circle 13"/>
		<circle id="Эллипс_1_копия_23" cx="32" cy="469.9" r="5" class="circle 14"/>
		<circle id="Эллипс_1_копия_24" cx="112" cy="426.9" r="5" class="circle 15"/>
		<circle id="Эллипс_1_копия_28" cx="396.5" cy="342.5" r="2.5" class="circle 16"/>
		<circle id="Эллипс_1_копия_29" cx="32" cy="553.9" r="5" class="circle 17"/>
		<circle id="Эллипс_1_копия_30" cx="112" cy="512.9" r="5"/>
		<circle id="Эллипс_1_копия_36" cx="112" cy="598.9" r="5" class="circle 18"/>
		<circle id="Эллипс_1_копия_42" cx="112" cy="684.9" r="5" class="circle 19"/>
		<circle id="Эллипс_1_копия_57" cx="678" cy="169" r="5" class="circle 20"/>
		<circle id="Эллипс_1_копия_58" cx="678" cy="255" r="5" class="circle 21"/>
		<circle id="Эллипс_1_копия_59" cx="678" cy="341" r="5" class="circle 22"/>
		<circle id="Эллипс_1_копия_60" cx="678" cy="426.9" r="5" class="circle 23"/>
		<circle id="Эллипс_1_копия_61" cx="678" cy="512.9" r="5" class="circle 24"/>
		<circle id="Эллипс_1_копия_62" cx="678" cy="598.9" r="5" class="circle 25"/>
		<circle id="Эллипс_1_копия_63" cx="678" cy="684.9" r="5" class="circle 26"/>
		<circle id="Эллипс_1_копия_46" cx="397.5" cy="596.5" r="2.5" class="circle 27"/>
		<circle id="Эллипс_1_копия_49" cx="182" cy="725.9" r="5" class="circle 28"/>
		<circle id="Эллипс_1_копия_64" cx="610" cy="129" r="5" class="circle 29"/>
		<circle id="Эллипс_1_копия_65" cx="610.5" cy="213.5" r="2.5" class="circle 30"/>
		<circle id="Эллипс_1_копия_71" cx="610" cy="725.9" r="5" class="circle 31"/>
		<circle id="Эллипс_1_копия_47" cx="252" cy="767.9" r="5" class="circle 32"/>
		<circle id="Эллипс_1_копия_52" cx="323" cy="808.9" r="5" class="circle 33"/>
		<circle id="Эллипс_1_копия_53" cx="323.5" cy="725.5" r="2.5" class="circle 34"/>
		<circle id="Эллипс_1_копия_72" cx="537" cy="89" r="5" class="circle 35"/>
		<circle id="Эллипс_1_копия_79" cx="537" cy="767.9" r="5" class="circle 36"/>
		<circle id="Эллипс_1_копия_80" cx="537" cy="682.9" r="5" class="circle 37"/>
		<circle id="Эллипс_1_копия_54" cx="397.5" cy="680.5" r="2.5" class="circle 38"/>
		<circle id="Эллипс_1_копия_55" cx="397" cy="764.9" r="5" class="circle 39"/>
		<circle id="Эллипс_1_копия_81" cx="472" cy="49" r="5" class="circle 40"/>
		<circle id="Эллипс_1_копия_82" cx="472.5" cy="132.5" r="2.5" class="circle 41"/>
		<circle id="Эллипс_1_копия_84" cx="472.5" cy="302.5" r="2.5" class="circle 42"/>
		<circle id="Эллипс_1_копия_88" cx="472" cy="808.9" r="5" class="circle 43"/>
		<circle id="Эллипс_1_копия_89" cx="472" cy="724.9" r="5" class="circle 44"/>
		<circle id="Эллипс_1_копия_90" cx="472" cy="639.9" r="5" class="circle 45"/>
		<circle id="Эллипс_1_копия_3" cx="32" cy="638.9" r="5" class="circle 46"/>
		<circle id="Эллипс_1_копия_2" cx="762" cy="216" r="5" class="circle 47"/>
		<circle id="Эллипс_1_копия_35" cx="762" cy="301" r="5" class="circle 48"/>
		<circle id="Эллипс_1_копия_41" cx="762" cy="385" r="5" class="circle 49"/>
		<circle id="Эллипс_1_копия_48" cx="762" cy="469.9" r="5" class="circle 50"/>
		<circle id="Эллипс_1_копия_56" cx="762" cy="553.9" r="5" class="circle 51"/>
		<circle id="Эллипс_1_копия_4" cx="762" cy="638.9" r="5" class="circle 52"/>
		<circle id="Эллипс_1_копия_5" cx="397" cy="848.9" r="5" class="circle 53"/>
		<circle id="Эллипс_1_копия_43" cx="181.5" cy="640.5" r="2.5" class="circle 54"/>
		<circle id="Эллипс_1_копия_19" cx="183.5" cy="301.5" r="2.5" class="circle 55"/>
		<circle id="Эллипс_1_копия_25" cx="182.5" cy="385.5" r="2.5" class="circle 56"/>
		<circle id="Эллипс_1_копия_31" cx="183.5" cy="471.5" r="2.5" class="circle 57"/>
		<circle id="Эллипс_1_копия_37" cx="183.5" cy="556.5" r="2.5" class="circle 58"/>
		<circle id="Эллипс_1_копия_40" cx="397.5" cy="510.5" r="2.5" class="circle 59"/>
		<circle id="Эллипс_1_копия_66" cx="610.5" cy="300.5" r="2.5" class="circle 60"/>
		<circle id="Эллипс_1_копия_67" cx="611" cy="386" r="5" class="circle 61"/>
		<circle id="Эллипс_1_копия_68" cx="610" cy="470" r="5" class="circle 62"/>
		<circle id="Эллипс_1_копия_69" cx="610" cy="555" r="5" class="circle 63"/>
		<circle id="Эллипс_1_копия_70" cx="610" cy="641" r="5" class="circle 64"/>
		<circle id="Эллипс_1_копия_75" cx="536.5" cy="343.5" r="2.5" class="circle 65"/>
		<circle id="Эллипс_1_копия_76" cx="537.5" cy="429.5" r="2.5" class="circle 67"/>
		<circle id="Эллипс_1_копия_77" cx="537.5" cy="512.5" r="2.5" class="circle 68"/>
		<circle id="Эллипс_1_копия_78" cx="538" cy="598" r="5" class="circle 69"/>
		<circle id="Эллипс_1_копия_87" cx="472.5" cy="555.5" r="2.5" class="circle 70"/>
	</g>
	<g id="F">
		<circle id="Эллипс_1_копия_34" cx="397.5" cy="427.4" r="12.5" class="circle 71"/>
		<circle id="Эллипс_1_копия_14" cx="252.5" cy="173.5" r="12.5" class="circle 72"/>
		<circle id="Эллипс_1_копия_16" cx="397.5" cy="174.5" r="12.5" class="circle 73"/>
		<circle id="Эллипс_1_копия_21" cx="322.5" cy="217.5" r="12.5" class="circle 74"/>
		<circle id="Эллипс_1_копия_22" cx="397.5" cy="258.5" r="12.5" class="circle 75"/>
		<circle id="Эллипс_1_копия_27" cx="323.5" cy="302.5" r="12.5" class="circle 76"/>
		<circle id="Эллипс_1_копия_45" cx="323.5" cy="556.5" r="12.5" class="circle 77"/>
		<circle id="Эллипс_1_копия_50" cx="252.5" cy="683.5" r="12.5" class="circle 78"/>
		<circle id="Эллипс_1_копия_73" cx="537.5" cy="174.5" r="12.5" class="circle 79"/>
		<circle id="Эллипс_1_копия_51" cx="323.5" cy="640.5" r="12.5" class="circle 80"/>
		<circle id="Эллипс_1_копия_83" cx="472.5" cy="217.5" r="12.5" class="circle 81"/>
		<circle id="Эллипс_1_копия_85" cx="472.5" cy="386.5" r="12.5" class="circle 82"/>
		<circle id="Эллипс_1_копия_20" cx="252.5" cy="259.5" r="12.5" class="circle 83"/>
		<circle id="Эллипс_1_копия_26" cx="252.5" cy="344.5" r="12.5" class="circle 84"/>
		<circle id="Эллипс_1_копия_32" cx="251.5" cy="428.4" r="12.5" class="circle 85"/>
		<circle id="Эллипс_1_копия_38" cx="252.5" cy="513.4" r="12.5" class="circle 86"/>
		<circle id="Эллипс_1_копия_44" cx="251.5" cy="597.4" r="12.5" class="circle 87"/>
		<circle id="Эллипс_1_копия_74" cx="537.5" cy="259.5" r="12.5" class="circle 88"/>
		<circle id="Эллипс_1_копия_33" cx="322.5" cy="386.5" r="12.5" class="circle 89"/>
		<circle id="Эллипс_1_копия_39" cx="323.5" cy="471.4" r="12.5" class="circle 90"/>
		<circle id="Эллипс_1_копия_86" cx="472.5" cy="471.4" r="12.5" class="circle 91"/>
	</g>
</g>
</svg>
