<?xml version="1.0" encoding="utf-8"?>
<!-- Generator: Adobe Illustrator 19.2.1, SVG Export Plug-In . SVG Version: 6.00 Build 0)  -->
<svg version="1.1" id="_1" xmlns="http://www.w3.org/2000/svg" xmlns:xlink="http://www.w3.org/1999/xlink" x="0px" y="0px"
	 viewBox="0 0 795 982" style="enable-background:new 0 0 795 982;" xml:space="preserve">
<style type="text/css">
	.st0{font-family:'Gilroy-Light';}
	.st1{font-size:66.666px;}
</style>
<g id="points">
	<g id="all">
		<circle id="Эллипс_1" cx="397" cy="5" r="5"/>
		<circle id="Эллипс_1_копия" cx="32" cy="216" r="5"/>
		<circle id="Эллипс_1_копия_6" cx="112" cy="169" r="5"/>
		<circle id="Эллипс_1_копия_7" cx="182" cy="129" r="5"/>
		<circle id="Эллипс_1_копия_8" cx="252" cy="89" r="5"/>
		<circle id="Эллипс_1_копия_9" cx="323" cy="49" r="5"/>
		<circle id="Эллипс_1_копия_10" cx="397" cy="89" r="5"/>
		<circle id="Эллипс_1_копия_11" cx="32" cy="301" r="5"/>
		<circle id="Эллипс_1_копия_12" cx="112" cy="255" r="5"/>
		<circle id="Эллипс_1_копия_13" cx="182.5" cy="213.5" r="2.5"/>
		<circle id="Эллипс_1_копия_15" cx="323.5" cy="133.5" r="2.5"/>
		<circle id="Эллипс_1_копия_17" cx="32" cy="385" r="5"/>
		<circle id="Эллипс_1_копия_18" cx="112" cy="341" r="5"/>
		<circle id="Эллипс_1_копия_23" cx="32" cy="469.9" r="5"/>
		<circle id="Эллипс_1_копия_24" cx="112" cy="426.9" r="5"/>
		<circle id="Эллипс_1_копия_28" cx="396.5" cy="342.5" r="2.5"/>
		<circle id="Эллипс_1_копия_29" cx="32" cy="553.9" r="5"/>
		<circle id="Эллипс_1_копия_30" cx="112" cy="512.9" r="5"/>
		<circle id="Эллипс_1_копия_36" cx="112" cy="598.9" r="5"/>
		<circle id="Эллипс_1_копия_42" cx="112" cy="684.9" r="5"/>
		<circle id="Эллипс_1_копия_57" cx="678" cy="169" r="5"/>
		<circle id="Эллипс_1_копия_58" cx="678" cy="255" r="5"/>
		<circle id="Эллипс_1_копия_59" cx="678" cy="341" r="5"/>
		<circle id="Эллипс_1_копия_60" cx="678" cy="426.9" r="5"/>
		<circle id="Эллипс_1_копия_61" cx="678" cy="512.9" r="5"/>
		<circle id="Эллипс_1_копия_62" cx="678" cy="598.9" r="5"/>
		<circle id="Эллипс_1_копия_63" cx="678" cy="684.9" r="5"/>
		<circle id="Эллипс_1_копия_46" cx="397.5" cy="596.5" r="2.5"/>
		<circle id="Эллипс_1_копия_49" cx="182" cy="725.9" r="5"/>
		<circle id="Эллипс_1_копия_64" cx="610" cy="129" r="5"/>
		<circle id="Эллипс_1_копия_65" cx="610.5" cy="213.5" r="2.5"/>
		<circle id="Эллипс_1_копия_71" cx="610" cy="725.9" r="5"/>
		<circle id="Эллипс_1_копия_47" cx="252" cy="767.9" r="5"/>
		<circle id="Эллипс_1_копия_52" cx="323" cy="808.9" r="5"/>
		<circle id="Эллипс_1_копия_53" cx="323.5" cy="725.5" r="2.5"/>
		<circle id="Эллипс_1_копия_72" cx="537" cy="89" r="5"/>
		<circle id="Эллипс_1_копия_79" cx="537" cy="767.9" r="5"/>
		<circle id="Эллипс_1_копия_80" cx="537" cy="682.9" r="5"/>
		<circle id="Эллипс_1_копия_54" cx="397.5" cy="680.5" r="2.5"/>
		<circle id="Эллипс_1_копия_55" cx="397" cy="764.9" r="5"/>
		<circle id="Эллипс_1_копия_81" cx="472" cy="49" r="5"/>
		<circle id="Эллипс_1_копия_82" cx="472.5" cy="132.5" r="2.5"/>
		<circle id="Эллипс_1_копия_84" cx="472.5" cy="302.5" r="2.5"/>
		<circle id="Эллипс_1_копия_88" cx="472" cy="808.9" r="5"/>
		<circle id="Эллипс_1_копия_89" cx="472" cy="724.9" r="5"/>
		<circle id="Эллипс_1_копия_90" cx="472" cy="639.9" r="5"/>
		<circle id="Эллипс_1_копия_3" cx="32" cy="638.9" r="5"/>
		<circle id="Эллипс_1_копия_2" cx="762" cy="216" r="5"/>
		<circle id="Эллипс_1_копия_35" cx="762" cy="301" r="5"/>
		<circle id="Эллипс_1_копия_41" cx="762" cy="385" r="5"/>
		<circle id="Эллипс_1_копия_48" cx="762" cy="469.9" r="5"/>
		<circle id="Эллипс_1_копия_56" cx="762" cy="553.9" r="5"/>
		<circle id="Эллипс_1_копия_4" cx="762" cy="638.9" r="5"/>
		<circle id="Эллипс_1_копия_5" cx="397" cy="848.9" r="5"/>
		<circle id="Эллипс_1_копия_43" cx="181.5" cy="640.5" r="2.5"/>
		<circle id="Эллипс_1_копия_19" cx="183.5" cy="301.5" r="2.5"/>
		<circle id="Эллипс_1_копия_25" cx="182.5" cy="385.5" r="2.5"/>
		<circle id="Эллипс_1_копия_31" cx="183.5" cy="471.5" r="2.5"/>
		<circle id="Эллипс_1_копия_37" cx="183.5" cy="556.5" r="2.5"/>
		<circle id="Эллипс_1_копия_40" cx="397.5" cy="510.5" r="2.5"/>
		<circle id="Эллипс_1_копия_66" cx="610.5" cy="300.5" r="2.5"/>
		<circle id="Эллипс_1_копия_67" cx="611" cy="386" r="5"/>
		<circle id="Эллипс_1_копия_68" cx="610" cy="470" r="5"/>
		<circle id="Эллипс_1_копия_69" cx="610" cy="555" r="5"/>
		<circle id="Эллипс_1_копия_70" cx="610" cy="641" r="5"/>
		<circle id="Эллипс_1_копия_75" cx="536.5" cy="343.5" r="2.5"/>
		<circle id="Эллипс_1_копия_76" cx="537.5" cy="429.5" r="2.5"/>
		<circle id="Эллипс_1_копия_77" cx="537.5" cy="512.5" r="2.5"/>
		<circle id="Эллипс_1_копия_78" cx="538" cy="598" r="5"/>
		<circle id="Эллипс_1_копия_87" cx="472.5" cy="555.5" r="2.5"/>
	</g>
	<g id="F">
		<circle id="Эллипс_1_копия_34" cx="397.5" cy="427.4" r="12.5"/>
		<circle id="Эллипс_1_копия_14" cx="252.5" cy="173.5" r="12.5"/>
		<circle id="Эллипс_1_копия_16" cx="397.5" cy="174.5" r="12.5"/>
		<circle id="Эллипс_1_копия_21" cx="322.5" cy="217.5" r="12.5"/>
		<circle id="Эллипс_1_копия_22" cx="397.5" cy="258.5" r="12.5"/>
		<circle id="Эллипс_1_копия_27" cx="323.5" cy="302.5" r="12.5"/>
		<circle id="Эллипс_1_копия_45" cx="323.5" cy="556.5" r="12.5"/>
		<circle id="Эллипс_1_копия_50" cx="252.5" cy="683.5" r="12.5"/>
		<circle id="Эллипс_1_копия_73" cx="537.5" cy="174.5" r="12.5"/>
		<circle id="Эллипс_1_копия_51" cx="323.5" cy="640.5" r="12.5"/>
		<circle id="Эллипс_1_копия_83" cx="472.5" cy="217.5" r="12.5"/>
		<circle id="Эллипс_1_копия_85" cx="472.5" cy="386.5" r="12.5"/>
		<circle id="Эллипс_1_копия_20" cx="252.5" cy="259.5" r="12.5"/>
		<circle id="Эллипс_1_копия_26" cx="252.5" cy="344.5" r="12.5"/>
		<circle id="Эллипс_1_копия_32" cx="251.5" cy="428.4" r="12.5"/>
		<circle id="Эллипс_1_копия_38" cx="252.5" cy="513.4" r="12.5"/>
		<circle id="Эллипс_1_копия_44" cx="251.5" cy="597.4" r="12.5"/>
		<circle id="Эллипс_1_копия_74" cx="537.5" cy="259.5" r="12.5"/>
		<circle id="Эллипс_1_копия_33" cx="322.5" cy="386.5" r="12.5"/>
		<circle id="Эллипс_1_копия_39" cx="323.5" cy="471.4" r="12.5"/>
		<circle id="Эллипс_1_копия_86" cx="472.5" cy="471.4" r="12.5"/>
	</g>
</g>
<text id="findious:_full_of_information" transform="matrix(1 0 0 1 -0.636 981.267)" class="st0 st1">findious: full of information</text>
</svg>
